<svg xmlns="http://www.w3.org/2000/svg" viewBox="0 0 18 18"><defs><style>.cls-1{fill:none;}.cls-2{fill:#fff;}</style></defs><g id="globalMoney"><rect id="Bounding_box" data-name="Bounding box" class="cls-1" width="18" height="18"/><path class="cls-2" d="M17.82,10.8A8.86,8.86,0,0,0,18,9,9,9,0,0,0,1.5,4.05V1.87L.3,3.07V6H3.24l1.2-1.2h-2A7.83,7.83,0,0,1,6.85,1.51,10.31,10.31,0,0,0,4,8.4H1.23a7.9,7.9,0,0,1,.19-1.2H.18A8.86,8.86,0,0,0,0,9,9,9,0,0,0,16.5,14v2.18l1.2-1.2V12H14.89l-1.2,1.2h1.85a7.83,7.83,0,0,1-4.38,3.28A10.25,10.25,0,0,0,14,9.6h2.8a6.82,6.82,0,0,1-.19,1.2ZM1.23,9.6H4a10.31,10.31,0,0,0,2.82,6.89A7.8,7.8,0,0,1,1.23,9.6ZM8.4,16.22C6.64,15,5.39,12.55,5.24,9.6H8.4Zm0-7.82H5.24C5.39,5.45,6.64,3,8.4,1.78Zm1.2,7.82V9.6h3.17C12.61,12.55,11.36,15,9.6,16.22Zm0-7.82h0V1.78c1.76,1.18,3,3.67,3.17,6.62ZM14,8.4a10.25,10.25,0,0,0-2.81-6.88A7.79,7.79,0,0,1,16.77,8.4Z"/></g></svg>